<?xml version="1.0" encoding="utf-8"?>
<!-- Svg Vector Icons : http://www.onlinewebfonts.com/icon -->
<!DOCTYPE svg PUBLIC "-//W3C//DTD SVG 1.1//EN" "http://www.w3.org/Graphics/SVG/1.1/DTD/svg11.dtd">
<svg version="1.1" xmlns="http://www.w3.org/2000/svg" xmlns:xlink="http://www.w3.org/1999/xlink" x="0px" y="0px" viewBox="0 0 256 256" enable-background="new 0 0 256 256" xml:space="preserve">
<metadata> Svg Vector Icons : http://www.onlinewebfonts.com/icon </metadata>
<g><g><g><path fill="#000000" d="M144.9,75.7c-4.4,0.4-10.6,3.7-16.5,8.8c-3.6,3.1-4.2,4.9-2.1,6.4c1,0.7,1.5,0.7,4.1,0.1c6.4-1.7,9.4-0.9,14.2,4l3.2,3.2l-12.6,12.6c-11,11-12.7,12.5-14,12.3c-1.3-0.3-3.9,2.1-22.5,20.8c-20.8,20.8-21.1,21.2-21.5,23.9c-1.4,9.6,8.3,15.9,16.5,10.8c1-0.7,10.6-9.9,21.3-20.6c18-18,19.3-19.6,19.3-21.4s1-3,12.4-14.5l12.5-12.5l3.6,3.6c3.4,3.4,3.5,3.6,2.6,4.8c-0.5,0.8-0.7,2-0.5,2.7c0.5,2,6.3,7.3,7.9,7.3c1,0,3.6-2.3,9.5-8.2c4.5-4.5,8.1-8.7,8.1-9.2c0-1.1-6-7.6-7.5-8.1c-0.6-0.2-1.6-0.1-2.3,0.3c-1.1,0.6-2.3-0.4-14.8-12.8c-7.5-7.5-13.9-13.5-14.2-13.5c-0.3-0.1-1.5-0.2-2.8-0.5C147.7,75.7,145.9,75.5,144.9,75.7z M149.7,81.7c0.9,0.5,7.1,6.4,13.9,13.2l12.3,12.4l-2.8,2.7l-2.7,2.8L157.7,100c-7.1-6.9-13.6-13.1-14.6-13.6c-1-0.5-2.8-1.1-4-1.4l-2.2-0.5l3.7-1.8C144.7,80.8,147.3,80.5,149.7,81.7z M153.7,104.1l1.8,1.9L143,118.5c-13.5,13.5-13,13.2-15.8,10.1l-1.1-1.2l12.6-12.6c6.9-6.9,12.7-12.6,12.9-12.6C151.8,102.2,152.7,103,153.7,104.1z M178.5,116.2c-4.8,4.8-5.5,5.3-6.3,4.6c-0.8-0.7-0.3-1.5,4.5-6.3c4.8-4.8,5.5-5.3,6.3-4.6C183.8,110.7,183.3,111.4,178.5,116.2z M124.4,133.3l3.6,3.6L108.9,156c-20.2,20.1-20.2,20.1-23.5,18.4c-2-1-2.6-2.3-2.7-4.8c0-2.2,0.4-2.6,18.8-21.1c10.3-10.3,18.9-18.8,19.1-18.8C120.7,129.7,122.5,131.3,124.4,133.3z"/><path fill="#000000" d="M51.6,96c-24.8,18-41.2,30.2-41.5,31c-0.2,0.6-0.1,1.4,0.1,1.8c0.7,1.4,47.4,35.9,48.5,35.9c1.3,0,2.9-2.4,2.5-3.6c-0.2-0.5-10.2-8.1-22.1-17l-21.8-16.2l2.4-1.8c1.4-1,10.7-7.9,20.8-15.3c20.4-14.9,20.9-15.3,20.9-16.7c0-1.2-1.5-2.8-2.6-2.8C58.5,91.3,55.2,93.4,51.6,96z"/><path fill="#000000" d="M195.5,92.2c-1.3,1.3-1.1,2.7,0.4,4.1c0.7,0.6,10.4,7.8,21.6,15.9c11.2,8.1,20.5,15,20.8,15.2c0.2,0.2-9.4,7.6-21.3,16.6c-12,8.9-21.9,16.6-22.1,17c-0.5,1.2,0.6,2.9,2,3.4c0.9,0.3,3.7-1.5,12.2-7.9c6-4.5,16.7-12.4,23.6-17.6c6.9-5.2,12.8-9.9,13.1-10.4c0.2-0.6,0.2-1.4,0-1.9c-0.7-1.3-47.6-35.4-48.6-35.4C196.7,91.3,195.9,91.7,195.5,92.2z"/></g></g></g>
</svg>