<?xml version="1.0" encoding="utf-8"?>
<!-- Svg Vector Icons : http://www.onlinewebfonts.com/icon -->
<!DOCTYPE svg PUBLIC "-//W3C//DTD SVG 1.1//EN" "http://www.w3.org/Graphics/SVG/1.1/DTD/svg11.dtd">
<svg version="1.1" xmlns="http://www.w3.org/2000/svg" xmlns:xlink="http://www.w3.org/1999/xlink" x="0px" y="0px" viewBox="0 0 256 256" enable-background="new 0 0 256 256" xml:space="preserve">
<metadata> Svg Vector Icons : http://www.onlinewebfonts.com/icon </metadata>
<g><g><g><path fill="#000000" d="M17.1,24c-2.6,0.9-4.8,2.9-6,5.3L10,31.6l0.1,73.7l0.2,73.7l1.5,2.1c0.8,1.2,2.4,2.6,3.7,3.4l2.2,1.3l46.3,0.2l46.3,0.1v1.3c0,2.6-2.2,9.7-4.5,14.4c-3.2,6.7-6.2,10.8-12.7,17.5c-5.4,5.5-5.6,5.8-5.6,8c0,1.8,0.3,2.6,1.5,3.8l1.4,1.5H128h37.8l1.4-1.5c1.2-1.2,1.5-1.9,1.5-3.8c0-2.2-0.2-2.5-5.6-8c-6.6-6.7-9.5-10.8-12.7-17.5c-2.3-4.7-4.5-11.9-4.5-14.4V186l46.3-0.1c42.2-0.2,46.4-0.2,47.9-1c2.4-1.3,4.9-4.1,5.5-6.2c0.3-1.2,0.5-26.3,0.4-75.1l-0.2-73.2l-1.6-2.3c-0.8-1.2-2.5-2.7-3.7-3.3l-2.1-1.1l-109.9-0.1C52.8,23.5,18.2,23.7,17.1,24z M233,104.7v67.7H128H23.1v-67.7V37H128H233V104.7z"/><path fill="#000000" d="M31.5,104.7v59.8H128h96.5v-59.8V44.9H128H31.5V104.7z M136.7,67.7c0.7,0.7,1.3,1.6,1.3,2.1c0,0.4-2.7,17.2-6,37.1c-5.8,34.6-6.1,36.4-7.4,37.5c-0.7,0.7-1.9,1.2-2.6,1.2c-1.5,0-3.9-2.2-3.9-3.4c0-0.4,2.7-17.2,6-37.1c5.2-31.4,6.2-36.5,7.2-37.5C132.8,66,135.1,66.1,136.7,67.7z M101.3,79.6c0.6,0.6,1,1.8,1,2.7c0,1.4-1.5,3.1-10.5,12.1c-6.4,6.4-10.5,10.9-10.5,11.5c0,0.6,4.1,5.1,10.5,11.5c8.8,8.8,10.5,10.8,10.5,12.1c0,2.2-1.8,3.9-4.1,3.9c-1.7,0-2.7-0.8-12.2-10.4c-11.4-11.3-13.4-14.1-12.9-17.9c0.1-1.1,0.6-2.8,1.1-3.8c0.5-1,5.7-6.6,11.5-12.4c10-9.9,10.8-10.6,12.6-10.6C99.5,78.5,100.5,78.9,101.3,79.6z M170.4,89.1c5.8,5.8,11,11.4,11.5,12.4c1.4,2.9,1.2,6.7-0.5,9.5c-0.8,1.3-6,6.9-11.5,12.4c-9.2,9.1-10.3,10.1-12,10.1c-2.3,0-4.2-1.7-4.2-3.9c0-1.4,1.5-3.1,10.5-12.1c6.4-6.4,10.5-10.9,10.5-11.5c0-0.6-4.1-5.1-10.5-11.5c-9-9-10.5-10.8-10.5-12.1c0-2.3,1.7-3.9,4-3.9C159.6,78.5,160.4,79.2,170.4,89.1z"/></g></g></g>
</svg>