<?xml version="1.0" encoding="utf-8"?>
<!-- Svg Vector Icons : http://www.onlinewebfonts.com/icon -->
<!DOCTYPE svg PUBLIC "-//W3C//DTD SVG 1.1//EN" "http://www.w3.org/Graphics/SVG/1.1/DTD/svg11.dtd">
<svg version="1.1" xmlns="http://www.w3.org/2000/svg" xmlns:xlink="http://www.w3.org/1999/xlink" x="0px" y="0px" viewBox="0 0 256 256" enable-background="new 0 0 256 256" xml:space="preserve">
<metadata> Svg Vector Icons : http://www.onlinewebfonts.com/icon </metadata>
<g><g><path fill="#000000" d="M228.4,113.2c2.5,0,4.9,0.6,7.1,1.7c2.2,1.1,4.1,2.6,5.7,4.5c1.6,1.9,2.8,4.1,3.6,6.6c0.8,2.5,1.2,5.2,1.2,8.1c0,3.2-0.4,6-1.2,8.6c-0.8,2.5-2,4.8-3.6,6.7c-1.6,1.9-3.5,3.4-5.7,4.5s-4.6,1.7-7.1,1.7c-1.3,0-2.6-0.2-4-0.7c-1.4-0.5-2.8-1-4-1.7c0,9.2-2.5,17.7-7.4,25.5s-11.7,14.4-20.2,19.8c-8.3,5.4-17.9,9.6-29,12.6c-11.1,3-23,4.5-35.7,4.5c-12.7,0-24.6-1.5-35.7-4.5c-11.1-3-20.8-7.2-29-12.6c-8.6-5.4-15.3-12-20.2-19.8s-7.4-16.3-7.4-25.5c-1.3,0.6-2.6,1.2-4,1.7c-1.4,0.5-2.8,0.7-4,0.7c-2.5,0-4.9-0.6-7.1-1.7c-2.2-1.1-4.1-2.6-5.7-4.5c-1.6-1.9-2.8-4.1-3.6-6.7c-0.8-2.5-1.2-5.4-1.2-8.6c0-2.9,0.4-5.6,1.2-8.1c0.8-2.5,2-4.8,3.6-6.6c1.6-1.9,3.5-3.4,5.7-4.5c2.2-1.1,4.6-1.7,7.1-1.7c1.3,0,2.7,0.2,4.3,0.7c1.6,0.5,3,1.2,4.3,2.1c1.3,1,2.4,2,3.3,3.1c0.9,1.1,1.9,2.5,2.9,4c2.5-5.7,5.8-11.3,9.8-16.7c4-5.4,8.5-10.3,13.6-14.8c5.1-4.8,10.7-9,16.9-12.6s12.6-6.6,19.3-8.8c3.8-1.3,7.2-2.9,10.2-5c3-2.1,5.6-4.5,7.9-7.4c2.2-2.5,4-5.3,5.5-8.3c1.4-3,2.3-6.1,2.6-9.3c0.3,3.2,1.2,6.3,2.6,9.3c1.4,3,3.3,5.8,5.5,8.3c2.2,2.9,4.8,5.3,7.9,7.4c3,2.1,6.4,3.7,10.2,5c6.7,2.2,13,5.2,19,8.8s11.6,7.9,16.7,12.6c5.4,4.4,10.1,9.4,14,14.8c4,5.4,7.2,10.9,9.8,16.7c0.6-1.6,1.5-2.9,2.6-4c1.1-1.1,2.3-2.1,3.6-3.1c1.3-0.9,2.6-1.7,4-2.1C225.3,113.4,226.8,113.2,228.4,113.2z M35.2,140.8c0.6-1.6,0.4-3.2-0.7-4.8c-1.1-1.6-2.6-2.7-4.5-3.3c-1.6-0.6-3.3-0.6-5,0c-1.8,0.6-2.8,1.6-3.1,2.9c-0.3,1.6,0,3.2,0.9,4.8c0.9,1.6,2.4,2.7,4.3,3.3c1.9,0.9,3.6,1.1,5.2,0.5C33.9,143.5,34.9,142.4,35.2,140.8z M128,205.1c10.2,0,19.7-1.2,28.5-3.6c8.9-2.4,16.7-5.6,23.3-9.8c6.7-4.1,11.9-9,15.7-14.5c3.8-5.6,5.7-11.8,5.7-18.8c0-0.3,0-0.6,0-0.9c0-0.3,0-0.6,0-1V156v-0.9c0-0.3,0-0.6,0-0.9s-0.2-0.5-0.5-0.5v-0.5c0-1.3-0.2-2.7-0.7-4.3c-0.5-1.6-0.9-3.3-1.2-5.2c-0.6-1.6-1.3-3.2-1.9-4.8c-0.6-1.6-1.3-2.8-1.9-3.8c-1.9-2.8-4.2-5.4-6.9-7.6c-2.7-2.2-5.6-4.1-8.8-5.7c-2.9-1.6-6.1-2.8-9.8-3.8c-3.6-0.9-7.4-1.4-11.2-1.4c-3.2,0-6.1,0.3-8.8,0.9c-2.7,0.6-5.3,1.4-7.9,2.4s-5,2.1-7.4,3.6c-2.4,1.4-4.5,2.9-6.4,4.5c-1.9-1.6-4-3.1-6.4-4.5c-2.4-1.4-4.8-2.6-7.4-3.6c-2.5-0.9-5.2-1.7-8.1-2.4c-2.9-0.6-5.7-0.9-8.6-0.9c-3.8,0-7.5,0.5-11.2,1.4c-3.7,1-7.1,2.2-10.2,3.8c-2.9,1.6-5.6,3.5-8.3,5.7c-2.7,2.2-5,4.8-6.9,7.6c-0.6,1-1.3,2.2-1.9,3.8c-0.6,1.6-1.3,3.2-1.9,4.8c-0.6,1.9-1.1,3.6-1.4,5.2c-0.3,1.6-0.5,3-0.5,4.3c-0.3,0-0.5,0.2-0.5,0.5c0,0.6,0,1.1,0,1.4v0.9v0.5c0,0.3,0,0.6,0,1c0,0.3,0,0.6,0,0.9c0,7,1.9,13.2,5.7,18.8s9,10.4,15.7,14.5c6.6,4.1,14.4,7.4,23.3,9.8C108.3,203.9,117.9,205.1,128,205.1z M85.6,143.2c0-1.6-0.4-2.8-1.2-3.6c-0.8-0.8-1.7-1.2-2.6-1.2c-1.3,0-2.2,0.4-2.9,1.2c-0.6,0.8-0.9,2-0.9,3.6c0,1.3,0.3,2.3,0.9,3.1c0.6,0.8,1.6,1.2,2.9,1.2c0.9,0,1.8-0.4,2.6-1.2S85.6,144.5,85.6,143.2z M177,143.2c0-1.6-0.4-2.8-1.2-3.6c-0.8-0.8-1.7-1.2-2.6-1.2c-1,0-1.8,0.4-2.6,1.2c-0.8,0.8-1.2,2-1.2,3.6c0,1.3,0.4,2.3,1.2,3.1c0.8,0.8,1.7,1.2,2.6,1.2c1,0,1.8-0.4,2.6-1.2S177,144.5,177,143.2z M228.9,143.7c1.9-0.6,3.3-1.8,4.3-3.3c0.9-1.6,1.3-3.2,0.9-4.8c-0.6-1.3-1.8-2.2-3.3-2.9c-1.6-0.6-3.2-0.6-4.8,0c-1.9,0.6-3.4,1.8-4.5,3.3c-1.1,1.6-1.3,3.2-0.7,4.8c0.3,1.6,1.3,2.7,2.9,3.3C225.2,144.8,227,144.6,228.9,143.7z"/></g></g>
</svg>